<svg xmlns="http://www.w3.org/2000/svg" viewBox="0 0 260.01 836.96"><defs><style>.cls-1{fill:none;stroke:#000;stroke-linecap:round;stroke-linejoin:round;}</style></defs><title>aaa</title><g id="图层_2" data-name="图层 2"><g id="图层_1-2" data-name="图层 1"><path class="cls-1" d="M66.08,806a45,45,0,0,1-8.51,8.09A47.65,47.65,0,0,1,48,819.37c-2.73,1.17-7.23,2.66-10,3.83a21.42,21.42,0,0,0-2.23,1.09A7.94,7.94,0,0,0,33.67,826a6.82,6.82,0,0,0-1.29,2.52,12,12,0,0,0-.44,3.33,11,11,0,0,0,.2,2.12,4.91,4.91,0,0,0,.4,1.22,2,2,0,0,0,.86.9,5.14,5.14,0,0,0,2.17.35H99.22c.24,0,.81,0,1,0a4.4,4.4,0,0,0,1.75-.34,2.59,2.59,0,0,0,1.22-1.38,11.73,11.73,0,0,0,.68-4.17,19.3,19.3,0,0,0-.48-4.53,23.79,23.79,0,0,0-1.15-3.46L100.79,819a36.69,36.69,0,0,1-2.25-8,32.79,32.79,0,0,1-.45-7.21M159.74,699c.92,9.54,2.49,19.52,4.34,28.92,2.05,10.88,6.83,29.44,9.55,40.35a86.94,86.94,0,0,1,2.14,12c.72,6.84.76,16.14,1.66,22.94a12.89,12.89,0,0,0,1.35,4.5,5.57,5.57,0,0,0,1.43,1.63,8.45,8.45,0,0,0,2.59,1.27,28.45,28.45,0,0,0,8.38,1,61,61,0,0,0,12.72-1.45c1.79-.45,3.72-1,5-2.34a6.9,6.9,0,0,0,1.63-4.37,36.63,36.63,0,0,0-.38-6.86c-4.51-30.58-4.78-63.71-5.17-94.64M56.45,704.53c2.2,17.61,4.35,37.46,5.61,55.13.82,10.73,1.45,28.45,2.36,39.13a36.43,36.43,0,0,0,.77,5,7.1,7.1,0,0,0,.74,1.9,3.25,3.25,0,0,0,1,1,4.64,4.64,0,0,0,1.51.6,25.09,25.09,0,0,0,4,.42c2.9.14,5.92.13,8.82,0a55.41,55.41,0,0,0,11.56-1.49,13.13,13.13,0,0,0,5.85-3,8,8,0,0,0,2.06-4.13,27.44,27.44,0,0,0,.41-5.37l-.28-15.3c0-9.79.47-20.9,1-30.68.91-15.4,2.12-33.45,3.92-48.71m-61-299.95c-4.4,19.82-10.44,47.35-13.63,67-5.91,35.44-10.31,74.55-13.86,110.34-2.65,29.49-5.77,61.86-5.86,91.41,0,7.77.44,15.86,1.2,23.61a58,58,0,0,0,.87,6.33,15.2,15.2,0,0,0,1.72,4.64,8.83,8.83,0,0,0,2.61,2.77,12.6,12.6,0,0,0,4.46,1.75,36.12,36.12,0,0,0,8.07.57c3.06-.07,6.3-.38,9.34-.72C52.16,705.35,71.45,702,84,700.9a475.13,475.13,0,0,1,92.4-.62c1.37.12,22.64,2.45,23.24,2.38a17.66,17.66,0,0,0,2.94-.08,7.93,7.93,0,0,0,2.06-.52,5.44,5.44,0,0,0,2.27-1.76,11.23,11.23,0,0,0,1.74-3.9,39.15,39.15,0,0,0,1-7.77c.19-3.6.1-7.92,0-11.55m0,0c-1.38-45.48-10-102.4-8.57-147.86a290.53,290.53,0,0,1,5.48-46.37c1.82-9.39,7.54-36,8.61-45.44a218.83,218.83,0,0,0,1.64-23.28L217,399m-7.33,278c.1,3.94.19,8.49-.05,12.4a31.14,31.14,0,0,1-1.43,8.36,6.89,6.89,0,0,1-3.17,4c.38,31.26.7,64.67,5.28,95.56a39.67,39.67,0,0,1,.32,4.8,12.36,12.36,0,0,1-.36,3.08c3.84,2.84,9,6.67,13,9.34,1.73,1.16,3.6,2.39,5.43,3.36a22.37,22.37,0,0,0,4.48,1.83c5.72,1.62,12,2.05,17.88,2.53a26.72,26.72,0,0,1,5.11.78,4.87,4.87,0,0,1,1.74.9,5.43,5.43,0,0,1,1.5,3.65,21,21,0,0,1,0,5.22,6.07,6.07,0,0,1-.73,2.31,2.32,2.32,0,0,1-1.4,1,7.92,7.92,0,0,1-1.75.21H195a34.39,34.39,0,0,1-5.63-.34,5,5,0,0,1-2.68-1.22,4.63,4.63,0,0,1-1.12-2.18,28.41,28.41,0,0,1-.38-5.41c-.07-2.19-.31-4.62-.57-6.8a34,34,0,0,0-2.76-10.26,6.65,6.65,0,0,1-2.2-1.42,6.24,6.24,0,0,1-1.32-2.06,15,15,0,0,1-.82-3.16c-.4-2.47-.55-5.23-.72-7.74-.29-4.68-.64-13.35-1.27-17.89a95.09,95.09,0,0,0-1.88-9.68c-2.72-10.91-7.5-29.48-9.55-40.35-1.85-9.4-3.42-19.38-4.34-28.92a475.32,475.32,0,0,0-54,.16c-1.79,15.26-3,33.3-3.92,48.7-.52,9.79-1,20.9-1,30.69l.28,15.3a20.06,20.06,0,0,1-.92,7.12,7.06,7.06,0,0,1-2.06,2.84,32.79,32.79,0,0,0,.45,7.21,36.72,36.72,0,0,0,2.25,8l1.49,3.56a23.83,23.83,0,0,1,1.15,3.46,19.31,19.31,0,0,1,.48,4.53,11.78,11.78,0,0,1-.68,4.17,2.59,2.59,0,0,1-1.22,1.38,4.39,4.39,0,0,1-1.75.34c-.23,0-.8,0-1,0H35.57a5.13,5.13,0,0,1-2.17-.35,2,2,0,0,1-.86-.9,4.9,4.9,0,0,1-.4-1.22,11,11,0,0,1-.2-2.12,12,12,0,0,1,.44-3.33A6.82,6.82,0,0,1,33.68,826a7.9,7.9,0,0,1,2.14-1.72A21.43,21.43,0,0,1,38,823.21c2.74-1.17,7.23-2.66,10-3.83a47.6,47.6,0,0,0,9.56-5.31A45,45,0,0,0,66.08,806a5.6,5.6,0,0,1-.75-1.61,31.5,31.5,0,0,1-.92-5.57c-.9-10.68-1.55-28.4-2.36-39.13-1.25-17.66-3.41-37.52-5.61-55.13-7.82,1.17-16.45,2.65-24.33,3.07a45.14,45.14,0,0,1-8.59-.26,15.21,15.21,0,0,1-5.17-1.6,9,9,0,0,1-3.62-3.85A16.43,16.43,0,0,1,13.4,698c-.29-1.33-.49-2.79-.64-4.14-.38-3.58-.76-8.08-1-11.68-.61-9.66-.5-20-.17-29.68.59-16.47,2.27-37.93,3.63-54.45C19.1,554.9,24,509,31,466.27c3.19-19.69,9.23-47.22,13.63-67a8.07,8.07,0,0,1-3.11-1.64,5,5,0,0,1-1.31-2.27,16.78,16.78,0,0,1-.33-5.31,74.94,74.94,0,0,1,1.28-9c.8-4.18,2.08-9.48,3.1-13.65,1.65-6.59,10.56-43.66,12.31-49.32-1-.7-2.81-2-3.85-2.77a24.29,24.29,0,0,1-4.11-3.69,7.87,7.87,0,0,1-1.57-2.79,12.12,12.12,0,0,1,.27-6.06c1.33-5.2,2.69-12.2,4.82-17.09a50.57,50.57,0,0,1-6.66-10.54A67.78,67.78,0,0,1,41,263c-1.75-6.65-2.23-13.64-2.45-20.49-.55-19.76.76-48.06-.19-67.77a141.85,141.85,0,0,0-2-18.69,39.44,39.44,0,0,0-3.49-11,42.31,42.31,0,0,0-2.58-4.21C27,136,19.54,126.72,15.87,122a86.1,86.1,0,0,1-5.68-7.9A9,9,0,0,1,9,110.88a11.28,11.28,0,0,1,.35-4.15c1.39-5.5,4.4-11.3,5.72-16.82a53.38,53.38,0,0,1,1.36-5.29,7.48,7.48,0,0,1,1.24-2.23,8.4,8.4,0,0,1,3.54-2.29L.5,68.51l2.42-4.34L28.7,78.57a61.65,61.65,0,0,1,11.58-.29,17.91,17.91,0,0,1,3.41.63,7.07,7.07,0,0,1,2.52,1.3,7.22,7.22,0,0,1,1.86,2.57,18.88,18.88,0,0,1,1.15,3.5A27.36,27.36,0,0,1,50,92a14.12,14.12,0,0,1-.37,3.7,117.78,117.78,0,0,1,6.8,21.4,83.34,83.34,0,0,1,1.72,10.76,36.85,36.85,0,0,1-.16,8.41,55.21,55.21,0,0,1,20.32-3.84L74.7,130.1a23.29,23.29,0,0,1-3.42-2.65,5.15,5.15,0,0,1-1-1.25,1,1,0,0,1-.12-.68h0v0h.08l0,0,0,0,0,0,0,0,0,0,0,0,0,0a2.54,2.54,0,0,1,.79-.23,55.52,55.52,0,0,1,6.19,0,23.59,23.59,0,0,0,6-.54,12.92,12.92,0,0,0,4.05-1.8,13.13,13.13,0,0,0,3-2.87,10.66,10.66,0,0,0,1.6-2.77,7.55,7.55,0,0,0,.46-3,11.4,11.4,0,0,0-1-3.81,44,44,0,0,0-3.25-5.94L83.24,96c-4.76-7.47-8.89-16.1-6.89-25.16,1.09-5,3.79-9.41,6.52-13.64S90.4,46.56,92.54,42c1.83-3.83,2.89-8.31,4.69-12.16a32.29,32.29,0,0,1,4.59-7.19,65.37,65.37,0,0,1,8.35-8.16,87.07,87.07,0,0,1,11.7-8.19,54.86,54.86,0,0,1,9.29-4.37,24,24,0,0,1,6-1.35,17.89,17.89,0,0,1,7.52,1.21,33.52,33.52,0,0,0,4.13,1.41,6.3,6.3,0,0,0,1.82.06A15.93,15.93,0,0,1,154.53,3a17.24,17.24,0,0,1,3.83,1,32.71,32.71,0,0,1,4.91,2.28c7.76,4.34,13.8,11.15,18.64,18.51A73.17,73.17,0,0,1,190.82,43c.62,2.05,1.11,4.87,1.53,7a22.54,22.54,0,0,0,1.29,4.33,61.13,61.13,0,0,0,4.2,7.11,35.19,35.19,0,0,1,2.71,5.13A18.64,18.64,0,0,1,202,72.71a25.86,25.86,0,0,1-.85,7.22c-1.06,4.48-3.13,9.65-4.22,14.13a18,18,0,0,0-.52,3.52,6.41,6.41,0,0,0,.32,2.32,5.68,5.68,0,0,0,1.33,2c1,1.07,2.42,2,3.49,3a7.86,7.86,0,0,1,1.86,2.62,11.56,11.56,0,0,1,.72,3.85c.18,4.34-.75,9.26-.63,13.59a13.49,13.49,0,0,0,.42,3.11,5.67,5.67,0,0,0,.87,1.86,7.67,7.67,0,0,0,3.18,2.28,21.24,21.24,0,0,1,2.74,1.29,2.44,2.44,0,0,1,.6.54,1.87,1.87,0,0,1,.14,1.79A31.45,31.45,0,0,1,223,138.76a21.5,21.5,0,0,1,8.59,6.64,22.44,22.44,0,0,1,3.26,6.9,59.89,59.89,0,0,1,1.8,9.05c2.31,18.15.34,38.34-.93,56.61a112.89,112.89,0,0,0,0,16.74c.24,2.83,1,6.46,1,9.3a6.09,6.09,0,0,1-.49,2.5c-.77,1.63-2.73,2.06-4.36,2.27a58.8,58.8,0,0,1-7.36.05,35.48,35.48,0,0,1-5.55-.53c-3.27,7-6.93,15.13-9.73,22.29-1.12,2.79-2.61,7.28-3.69,10.1a25,25,0,0,1-2.77,5.46c2.12,6.94,4.75,15.43,6.4,22.44a168.49,168.49,0,0,1,3.24,17.55c2,15.17,2.54,35.35,6.46,50.11.94,3.69,3,10,3.33,13.71a10.78,10.78,0,0,1-.23,3.89c-.65,2.44-2.8,4.09-5,5.2l-.18,15.08a212.88,212.88,0,0,1-2,26.08c-2.91,19.1-9.46,45.18-11.74,64.34-2.32,17.76-2.48,36.07-1.78,54C202.64,592,208.65,643.67,209.67,677.08ZM56.6,318c-3.37,12.1-11.35,45.44-14.3,57.69-.81,3.8-1.71,7.91-2.15,11.76a36.65,36.65,0,0,0-.29,4.81,12.81,12.81,0,0,0,.32,2.82A5.5,5.5,0,0,0,41,397a4.87,4.87,0,0,0,1.47,1.3,13.91,13.91,0,0,0,3.1,1.21c5.25,1.45,11,2,16.43,2.58,26.58,2.48,56.5,4.53,83.14,5.33,12.26.29,25.26.5,37.49-.44a119.49,119.49,0,0,0,21.71-3.54,94.4,94.4,0,0,0,10.9-3.6c2.63-1.15,5.49-2.71,6.52-5.56a10.83,10.83,0,0,0,.3-4.93c-.4-3.4-2.4-9.74-3.27-13.12-3.92-14.77-4.44-34.94-6.46-50.11a168.47,168.47,0,0,0-3.25-17.55c-1.65-7-4.28-15.51-6.4-22.44m16.19-37.85a35.38,35.38,0,0,0,5.55.53,58.63,58.63,0,0,0,7.36-.05c1.63-.21,3.59-.64,4.36-2.27a6.11,6.11,0,0,0,.49-2.5c0-2.84-.74-6.47-1-9.3a112.89,112.89,0,0,1,0-16.74c1.27-18.27,3.24-38.46.93-56.61a59.92,59.92,0,0,0-1.8-9.05,22.44,22.44,0,0,0-3.26-6.9,21.5,21.5,0,0,0-8.59-6.64,31.43,31.43,0,0,0-11.57-2.85m-27.58,98.38a16.19,16.19,0,0,1-1.12-3.51,7.86,7.86,0,0,1,.21-2.86,25.52,25.52,0,0,1,1.32-3.87c2-4.78,5.37-10.73,7.5-15.48A175.1,175.1,0,0,0,202.6,177M52.16,285.61c-2.13,4.89-3.5,11.89-4.82,17.09a12.12,12.12,0,0,0-.27,6.06,7.87,7.87,0,0,0,1.57,2.79,24.29,24.29,0,0,0,4.11,3.69l3.36,2.43c1.16.79,2.48,1.71,3.95,1.53a4.2,4.2,0,0,0,1.95-.88A21.64,21.64,0,0,0,65.87,314c3.25-4.47,6.56-9.65,10.59-13.44a18.46,18.46,0,0,1,2.68-2.14,6.64,6.64,0,0,1,2.68-1.06,9.56,9.56,0,0,1,2.34,0c5.92.86,12.67,1.23,18.67,1.5,10,.4,21.51.52,31.56.24,16.23-.35,33.51-2.88,49.59-5.13a60.62,60.62,0,0,0,11.12-2.52,17.33,17.33,0,0,0,5.65-3.15c2.59-2.28,4-5.57,5.16-8.74,4-12.07,9.81-24.48,15.2-36a10.19,10.19,0,0,0,.88-3.22,6.36,6.36,0,0,0-1.24-4.05c-1.79-2.51-4.63-4-7.41-5.17a51.88,51.88,0,0,0-12.71-3.25c-5-.59-11.79-.93-15.24,3.44a12.1,12.1,0,0,0-2,4.67c-.21.77-1.08,5.14-1.27,6a52.68,52.68,0,0,1-2.52,8.57,11,11,0,0,1-1.86,3.15,4.93,4.93,0,0,1-1.85,1.25,9.34,9.34,0,0,1-1.78.47c-2.57.46-10,.86-12.68,1.09a115.66,115.66,0,0,0-12.72,1.67c-5.22,1-17.44,4.17-22.72,5.47-11.16,2.71-23.12,4-34.56,5.07M57.94,136.25a55.13,55.13,0,0,1,20.32-3.84M89.14,239.15a5.89,5.89,0,0,0,.8-1.53,16,16,0,0,0,.69-2.69,63.1,63.1,0,0,0,.71-7.69c.41-12.55.14-32,.22-44.68M21.26,80.1.5,68.51l2.42-4.34L28.7,78.57m5,37.75a19.94,19.94,0,0,1-1.12-6.24,7.24,7.24,0,0,1,.95-3.63,7.32,7.32,0,0,1,2.18-2.17A23.34,23.34,0,0,1,40.44,102a48.52,48.52,0,0,0,6.19-2.53A6.14,6.14,0,0,0,49,97.17a7.57,7.57,0,0,0,.83-2.68,18.6,18.6,0,0,0,.1-3.56,26.53,26.53,0,0,0-1.28-6.77,8.51,8.51,0,0,0-2.55-4.07,7.36,7.36,0,0,0-2.53-1.23,19,19,0,0,0-3.65-.62,63.33,63.33,0,0,0-11.11.32,27.59,27.59,0,0,0-8.53,2,7.58,7.58,0,0,0-2.4,1.71,8.26,8.26,0,0,0-1.66,3.23c-.34,1.09-.8,3.31-1.08,4.45-1.25,5.14-4,10.75-5.46,15.84A17.46,17.46,0,0,0,9,109.13a8,8,0,0,0,.54,3.6,15.29,15.29,0,0,0,1.54,2.8c4.47,6.43,12.56,16.1,17.22,22.45a54.11,54.11,0,0,1,4.78,7.39,31.38,31.38,0,0,1,2.24,5.93,90.73,90.73,0,0,1,2.48,15c1.83,20.25.41,48.79.64,69.26.13,9.13.25,18.53,2.57,27.41a67.52,67.52,0,0,0,4,11,54.46,54.46,0,0,0,6,10.09,30.34,30.34,0,0,0,7.5,7.17,21.81,21.81,0,0,0,6.82,2.88,24,24,0,0,0,10.66.1,17.91,17.91,0,0,0,6.9-3.07,20.64,20.64,0,0,0,6.82-10.09c2.45-7,1.82-14.58,1.08-21.81-.53-5.26-1.57-12.69-1.6-17.89a42.27,42.27,0,0,0-.14-5.81,5.11,5.11,0,0,0-.79-2,6.78,6.78,0,0,0-1.8-1.72,16.11,16.11,0,0,0-3.19-1.61c-1.74-.7-3.87-1.16-5.05-2.73a12.65,12.65,0,0,1-1.75-3.72c-1.89-6.26-15.63-52.18-17.11-57.67-.73-2.68-1.49-5.76-2-8.49a40.89,40.89,0,0,1-.91-12c.26-2.82,1.08-6.08,1.51-8.88a32.92,32.92,0,0,0,.39-5.74,78.77,78.77,0,0,0-2.51-16.63,114.83,114.83,0,0,0-6.17-18.68m60,53.95a89.07,89.07,0,0,0,16.87,7.92,65.13,65.13,0,0,0,15,3.15,81.12,81.12,0,0,0,15.18-.22,90.79,90.79,0,0,0,16.75-3.31c5.09-1.57,10.17-3.63,14.28-7.1a52.91,52.91,0,0,0,7.37-8.18m-64.62-23.52a22.92,22.92,0,0,1,1.51,5.78,32.22,32.22,0,0,1,.1,7.51c-.31,2.85-.92,5.84-2.76,8.13a17.12,17.12,0,0,1-4.6,3.82,55.42,55.42,0,0,1-20.83,7,21,21,0,0,1-9.35-.84,15.37,15.37,0,0,1-7.3-5.51A29.6,29.6,0,0,1,84.46,139a13.28,13.28,0,0,0-1.86-3,20.26,20.26,0,0,0-4.07-3.38l-4-2.59a22.64,22.64,0,0,1-3.28-2.55,5.25,5.25,0,0,1-1-1.22,1,1,0,0,1-.13-.71h0v0h0v0h.07l0,0h0l0,0,0,0,0,0,0,0h0a2.54,2.54,0,0,1,.79-.23,55.28,55.28,0,0,1,6.19,0,23.59,23.59,0,0,0,6-.54,12.85,12.85,0,0,0,7-4.56,10.79,10.79,0,0,0,1.69-2.89,7.55,7.55,0,0,0,.46-3,11.43,11.43,0,0,0-1-3.81,43.67,43.67,0,0,0-3.25-5.94L83.24,96c-4.76-7.47-8.89-16.1-6.89-25.16,1.09-5,3.79-9.41,6.52-13.64S90.4,46.56,92.55,42c1.83-3.83,2.89-8.31,4.69-12.16a32.29,32.29,0,0,1,4.59-7.19,65.37,65.37,0,0,1,8.35-8.16,87.34,87.34,0,0,1,11.7-8.19,54.9,54.9,0,0,1,9.29-4.37,24,24,0,0,1,6-1.35,17.88,17.88,0,0,1,7.52,1.21,31.39,31.39,0,0,0,4.19,1.42,6.39,6.39,0,0,0,1.76,0c.66-.05,1.54-.23,2.18-.26a9.52,9.52,0,0,1,1.68,0,17.17,17.17,0,0,1,3.83,1,32.76,32.76,0,0,1,4.91,2.28c7.76,4.34,13.8,11.15,18.64,18.51A73.2,73.2,0,0,1,190.82,43c.61,2.05,1.11,4.85,1.53,7a22.4,22.4,0,0,0,1.29,4.33,61.16,61.16,0,0,0,4.2,7.11,35.19,35.19,0,0,1,2.71,5.13A18.59,18.59,0,0,1,202,72.7a25.83,25.83,0,0,1-.85,7.22c-1.06,4.48-3.13,9.65-4.22,14.13a18.25,18.25,0,0,0-.52,3.36,6.62,6.62,0,0,0,.31,2.48,5.72,5.72,0,0,0,1.33,2c1,1.07,2.42,2,3.49,3a7.8,7.8,0,0,1,1.89,2.71,12.33,12.33,0,0,1,.7,4.12c.12,4.34-.81,9.25-.63,13.58a8.53,8.53,0,0,0,1.31,4.7,7.74,7.74,0,0,0,3.13,2.22,14.19,14.19,0,0,1,3.06,1.53,1.64,1.64,0,0,1,.51.76,3,3,0,0,1-.75,2.51,11.77,11.77,0,0,1-6.18,3.78,30.8,30.8,0,0,1-7.54,1,51.16,51.16,0,0,1-10.26-.83,27.29,27.29,0,0,1-9.82-3.46,14.17,14.17,0,0,1-3-2.68,21.24,21.24,0,0,1-2.64-4,33.43,33.43,0,0,1-2.81-7.75,26.57,26.57,0,0,1-.7-6.78M143.47,27.2a14.12,14.12,0,0,0-4.31-.41,21.86,21.86,0,0,0-5.62,1,16.37,16.37,0,0,0-4.69,2.31,11.92,11.92,0,0,0-2.61,2.63,16,16,0,0,0-2.5,5.84,44.21,44.21,0,0,0-.82,9.85l.24,12.4A58.65,58.65,0,0,1,122,74a35.32,35.32,0,0,1-2.78,7.53c-1.53,3.22-3.73,6.67-4.73,10.11a11.57,11.57,0,0,0-.32,5.18,17.44,17.44,0,0,0,2,5.46,40.92,40.92,0,0,0,4.56,6.48,68.21,68.21,0,0,0,13.85,12.76A27.31,27.31,0,0,0,145.18,126a18.82,18.82,0,0,0,7.79-.44,29.52,29.52,0,0,0,8.92-4.28,35.14,35.14,0,0,0,10.49-11,33.17,33.17,0,0,0,3.05-7.32,60.83,60.83,0,0,1,2.7-8.21,7.94,7.94,0,0,1,1.77-2.39c1.18-1.08,2.76-2,3.93-3.1a15.76,15.76,0,0,0,2.86-3.67,36,36,0,0,0,3-6.49,24.44,24.44,0,0,0,1.19-4.8,5.52,5.52,0,0,0-.61-3.61,4.32,4.32,0,0,0-2.9-2.25,6.65,6.65,0,0,0-2.77.68,4.28,4.28,0,0,1-1,.26,1.13,1.13,0,0,1-.52-.06h0l0,0h0l0,0,0,0-.06-.05,0,0v0l0,0v0l0,0a2.3,2.3,0,0,1-.33-.8,13.32,13.32,0,0,1-.22-2.88c0-2.28.19-5.47.09-7.73a42.1,42.1,0,0,0-.66-6.18,32.64,32.64,0,0,0-5.88-13.87,27.55,27.55,0,0,0-8.11-7.11,18.79,18.79,0,0,0-9.67-2.82,16.21,16.21,0,0,0-4.35.89,17,17,0,0,1-4,1c-1.38.07-2.65-.82-3.82-1.43A11,11,0,0,0,143.47,27.2Z"/></g></g></svg>