<svg width="263" height="840" viewBox="0 0 263 840" fill="none" xmlns="http://www.w3.org/2000/svg">
<path d="M183.33 811.861C184.831 815.086 185.666 818.602 186.094 822.123C186.348 824.304 186.588 826.732 186.661 828.925C186.719 830.61 186.636 832.697 187.037 834.333C187.233 835.132 187.568 835.925 188.154 836.518C188.865 837.238 189.866 837.555 190.837 837.742C192.621 838.076 194.645 838.053 196.463 838.08H256.234L256.708 838.073L256.933 838.067C257.514 838.043 258.118 838.01 258.682 837.856C259.252 837.707 259.762 837.384 260.083 836.878C260.52 836.19 260.685 835.366 260.815 834.571C261.06 832.847 261.048 831.08 260.858 829.353C260.702 828.043 260.418 826.597 259.362 825.702C258.862 825.272 258.249 824.995 257.624 824.799C256.005 824.307 254.199 824.18 252.516 824.016C246.6 823.539 240.355 823.108 234.636 821.485C233.083 821.046 231.572 820.423 230.152 819.66C228.319 818.683 226.446 817.457 224.72 816.297C220.788 813.627 215.591 809.794 211.748 806.954" stroke="#C346FF" stroke-width="2.75" stroke-miterlimit="10" stroke-linecap="round" stroke-linejoin="round"/>
<path d="M67.5717 807.603C65.101 810.642 62.2392 813.395 59.0651 815.69C56.117 817.833 52.861 819.587 49.5039 820.997C46.773 822.165 42.278 823.659 39.5397 824.827C38.79 825.151 38.015 825.511 37.31 825.92C36.5157 826.382 35.7571 826.935 35.1666 827.644C34.5523 828.372 34.1448 829.255 33.8815 830.166C33.5706 831.244 33.4368 832.374 33.4382 833.494C33.4412 834.202 33.4962 834.918 33.6361 835.611C33.7223 836.029 33.8384 836.451 34.0317 836.834C34.2191 837.21 34.5107 837.542 34.89 837.732C35.5578 838.064 36.3343 838.059 37.0646 838.079L100.713 838.082C100.957 838.07 101.527 838.087 101.759 838.07C102.351 838.046 102.963 837.992 103.505 837.731C104.082 837.46 104.484 836.926 104.726 836.35C105.262 835.035 105.375 833.584 105.407 832.177C105.422 830.659 105.27 829.121 104.927 827.643C104.653 826.466 104.231 825.299 103.779 824.179L102.288 820.622C101.238 818.07 100.485 815.379 100.036 812.657C99.645 810.285 99.4486 807.851 99.5885 805.447" stroke="#C346FF" stroke-width="2.75" stroke-miterlimit="10" stroke-linecap="round" stroke-linejoin="round"/>
<path d="M161.236 700.639C162.151 710.179 163.722 720.158 165.572 729.562C167.626 740.437 172.402 759.001 175.123 769.913C176.058 773.798 176.887 777.9 177.262 781.872C177.983 788.709 178.023 798.009 178.923 804.811C179.167 806.355 179.479 807.945 180.271 809.312C180.637 809.939 181.123 810.499 181.702 810.939C182.469 811.527 183.374 811.919 184.29 812.212C186.989 813.041 189.868 813.167 192.674 813.164C196.933 813.103 201.243 812.666 205.398 811.712C207.186 811.263 209.116 810.741 210.434 809.376C211.55 808.214 211.953 806.572 212.064 805.007C212.222 802.734 211.951 800.404 211.679 798.149C207.168 767.57 206.903 734.442 206.51 703.507" stroke="#C346FF" stroke-width="2.75" stroke-miterlimit="10" stroke-linecap="round" stroke-linejoin="round"/>
<path d="M57.939 706.162C60.1433 723.77 62.2912 743.624 63.5495 761.287C64.3661 772.022 64.9998 789.734 65.9071 800.42C66.0826 802.093 66.2656 803.832 66.6761 805.464C66.8471 806.12 67.0599 806.779 67.4124 807.362C67.6623 807.777 67.9984 808.143 68.4045 808.409C68.8581 808.709 69.3832 808.889 69.9098 809.013C71.18 809.3 72.5603 809.356 73.8603 809.435C76.7653 809.575 79.7803 809.562 82.6852 809.444C86.5481 809.26 90.4942 808.952 94.2425 807.957C96.3532 807.368 98.5114 806.551 100.096 804.982C101.213 803.877 101.852 802.38 102.159 800.856C102.519 799.105 102.557 797.268 102.565 795.483L102.284 780.185C102.276 770.398 102.752 759.29 103.274 749.5C104.182 734.096 105.398 716.052 107.192 700.795" stroke="#C346FF" stroke-width="2.75" stroke-miterlimit="10" stroke-linecap="round" stroke-linejoin="round"/>
<path d="M46.1631 400.849C41.7589 420.667 35.7244 448.198 32.5354 467.891C26.6214 503.335 22.2275 542.437 18.68 578.23C16.0339 607.717 12.9088 640.092 12.821 669.64C12.8389 677.415 13.2598 685.505 14.0244 693.247C14.243 695.271 14.4438 697.594 14.893 699.574C15.247 701.185 15.7572 702.791 16.6155 704.209C17.2744 705.302 18.1594 706.268 19.2214 706.981C20.5542 707.883 22.1145 708.397 23.6777 708.731C26.3164 709.28 29.0607 709.352 31.7485 709.297C34.8052 709.226 38.0522 708.921 41.091 708.576C53.6553 706.979 72.9487 703.654 85.4713 702.525C116.06 699.463 147.251 698.967 177.87 701.909C179.244 702.031 200.513 704.359 201.111 704.288C202.084 704.326 203.08 704.338 204.047 704.213C204.751 704.123 205.454 703.968 206.11 703.693C207.01 703.324 207.802 702.707 208.385 701.93C209.252 700.785 209.756 699.409 210.128 698.033C210.787 695.513 211.017 692.858 211.157 690.263C211.345 686.659 211.254 682.344 211.162 678.713C209.783 633.228 201.117 576.316 202.588 530.848C203.028 515.354 205.139 499.688 208.069 484.475C209.885 475.083 215.609 448.445 216.677 439.031C217.674 431.435 218.144 423.409 218.313 415.748L218.493 400.669" stroke="#C346FF" stroke-width="2.75" stroke-miterlimit="10" stroke-linecap="round" stroke-linejoin="round"/>
<path d="M58.095 319.622C54.7275 331.724 46.743 365.061 43.7904 377.315C42.9827 381.117 42.0769 385.222 41.6381 389.079C41.4581 390.661 41.3139 392.296 41.3451 393.891C41.3674 394.834 41.4373 395.791 41.6679 396.708C41.8419 397.393 42.1156 398.063 42.538 398.634C42.9277 399.166 43.4424 399.599 44.0091 399.932C44.9685 400.493 46.0513 400.829 47.1118 401.143C52.358 402.596 58.1292 403.121 63.5404 403.725C90.1252 406.202 120.04 408.259 146.682 409.053C158.947 409.345 171.942 409.549 184.168 408.615C191.45 408.037 198.825 406.989 205.881 405.077C209.507 404.066 213.306 402.928 216.782 401.476C219.412 400.325 222.268 398.763 223.305 395.918C223.861 394.343 223.81 392.625 223.608 390.989C223.208 387.59 221.209 381.249 220.34 377.868C216.418 363.101 215.903 342.925 213.88 327.755C213.132 321.966 212.003 315.877 210.635 310.204C208.981 303.189 206.351 294.699 204.233 287.763" stroke="#C346FF" stroke-width="2.75" stroke-miterlimit="10" stroke-linecap="round" stroke-linejoin="round"/>
<path d="M220.419 249.915C222.231 250.265 224.129 250.388 225.973 250.446C228.225 250.482 231.115 250.668 233.332 250.396C234.96 250.189 236.922 249.753 237.69 248.126C238.06 247.352 238.157 246.478 238.178 245.63C238.191 242.791 237.443 239.158 237.199 236.328C236.67 230.823 236.902 225.101 237.202 219.584C238.475 201.318 240.442 181.128 238.132 162.975C237.73 159.947 237.199 156.853 236.332 153.921C235.605 151.481 234.586 149.087 233.074 147.024C230.919 144.045 227.793 141.91 224.485 140.387C220.854 138.733 216.908 137.711 212.917 137.533" stroke="#C346FF" stroke-width="2.75" stroke-miterlimit="10" stroke-linecap="round" stroke-linejoin="round"/>
<path d="M185.341 235.914C184.932 234.797 184.361 233.588 184.224 232.399C184.095 231.444 184.209 230.472 184.431 229.539C184.742 228.224 185.237 226.921 185.756 225.673C187.805 220.893 191.129 214.944 193.254 210.198C197.868 200.101 201.489 189.385 204.089 178.596" stroke="#C346FF" stroke-width="2.75" stroke-miterlimit="10" stroke-linecap="round" stroke-linejoin="round"/>
<path d="M53.6554 287.235C51.5254 292.124 50.16 299.122 48.8347 304.322C48.3855 306.292 47.9839 308.395 48.5625 310.379C48.8615 311.413 49.4505 312.343 50.1332 313.165C51.3127 314.577 52.7838 315.752 54.2474 316.854C55.0015 317.403 56.8727 318.765 57.609 319.289C58.7677 320.08 60.0841 320.996 61.5581 320.822C62.2795 320.733 62.931 320.367 63.5052 319.94C65.0298 318.77 66.2138 317.199 67.3665 315.677C70.615 311.209 73.929 306.028 77.9614 302.234C78.7914 301.456 79.6794 300.702 80.6418 300.091C81.4554 299.573 82.3583 299.159 83.3206 299.035C84.0926 298.927 84.8839 298.981 85.6559 299.064C91.5788 299.922 98.3228 300.296 104.322 300.561C114.371 300.961 125.83 301.081 135.877 300.799C152.111 300.452 169.386 297.919 185.471 295.665C189.203 295.084 193.03 294.421 196.594 293.143C198.621 292.404 200.616 291.435 202.24 289.992C204.831 287.709 206.219 284.422 207.397 281.251C211.441 269.185 217.205 256.768 222.593 245.237C223.018 244.211 223.4 243.136 223.47 242.019C223.571 240.57 223.055 239.136 222.225 237.964C220.433 235.456 217.599 233.958 214.815 232.794C210.762 231.151 206.435 230.11 202.103 229.542C197.107 228.956 190.31 228.617 186.865 232.978C185.801 234.33 185.245 235.999 184.839 237.65C184.625 238.423 183.763 242.791 183.572 243.653C182.919 246.54 182.188 249.481 181.052 252.219C180.57 253.336 180.024 254.464 179.194 255.368C178.684 255.922 178.043 256.351 177.341 256.621C176.771 256.844 176.163 256.982 175.562 257.088C172.99 257.547 165.583 257.944 162.884 258.178C158.708 258.517 154.275 259.035 150.165 259.844C144.945 260.794 132.725 264.018 127.441 265.31C116.28 268.017 104.319 269.331 92.8803 270.376" stroke="#C346FF" stroke-width="2.75" stroke-miterlimit="10" stroke-linecap="round" stroke-linejoin="round"/>
<path d="M59.4307 137.877C65.8905 135.379 72.8175 133.968 79.7548 134.036" stroke="#C346FF" stroke-width="2.75" stroke-miterlimit="10" stroke-linecap="round" stroke-linejoin="round"/>
<path d="M90.6387 240.78C90.9897 240.32 91.2381 239.787 91.4389 239.247C91.7572 238.382 91.964 237.466 92.1276 236.558C92.5634 234.062 92.7196 231.395 92.8416 228.864C93.2536 216.313 92.9784 196.902 93.0632 184.18" stroke="#C346FF" stroke-width="2.75" stroke-miterlimit="10" stroke-linecap="round" stroke-linejoin="round"/>
<path d="M22.7583 81.7307L1.9939 70.1348L4.41393 65.7989L30.1984 80.1957" stroke="#C346FF" stroke-width="2.75" stroke-miterlimit="10" stroke-linecap="round" stroke-linejoin="round"/>
<path d="M35.1815 117.942C34.5508 115.927 34.0272 113.823 34.0644 111.699C34.0912 110.44 34.347 109.15 35.0119 108.064C35.5504 107.179 36.3417 106.474 37.191 105.894C38.6412 104.912 40.3027 104.227 41.9314 103.6C43.7505 102.867 46.4562 102.079 48.125 101.075C49.0785 100.524 49.9427 99.7732 50.4797 98.8004C50.9422 97.9794 51.1802 97.0482 51.3096 96.1201C51.4703 94.9465 51.4762 93.7432 51.4093 92.5607C51.2635 90.2715 50.8589 87.969 50.1256 85.7944C49.6021 84.2742 48.8688 82.7377 47.5762 81.7263C46.834 81.1387 45.9489 80.7565 45.0446 80.4932C43.8636 80.1496 42.6216 79.9771 41.3974 79.87C37.7146 79.5784 33.9544 79.8253 30.2849 80.1853C27.3948 80.514 24.4215 80.9231 21.759 82.1546C20.8695 82.58 20.0172 83.1274 19.3553 83.8652C18.5327 84.774 18.0449 85.9297 17.6968 87.0929C17.3577 88.1862 16.8921 90.4069 16.6184 91.5403C15.369 96.6794 12.6187 102.294 11.1551 107.377C10.8487 108.481 10.5825 109.611 10.4992 110.755C10.404 111.976 10.5765 113.218 11.0346 114.354C11.4229 115.339 11.9881 116.269 12.5726 117.149C17.0424 123.575 25.1324 133.248 29.7881 139.596C31.512 141.952 33.2508 144.38 34.5672 146.986C35.5236 148.864 36.245 150.881 36.8028 152.913C38.1281 157.775 38.7974 162.914 39.2838 167.927C41.1178 188.177 39.6973 216.722 39.9279 237.186C40.0588 246.313 40.1792 255.715 42.5026 264.593C43.4902 268.368 44.8691 272.094 46.4993 275.639C48.1384 279.171 50.0914 282.63 52.455 285.731C54.5582 288.483 57.0303 291.017 59.9516 292.903C62.031 294.251 64.3618 295.216 66.7714 295.787C70.255 296.61 73.9348 296.658 77.4318 295.883C79.8994 295.331 82.3016 294.342 84.3275 292.813C87.6504 290.329 89.8309 286.609 91.1443 282.726C93.5897 275.743 92.9664 268.142 92.2227 260.912C91.6947 255.654 90.655 248.217 90.6208 243.02C90.5702 241.205 90.7963 238.993 90.4795 237.208C90.3515 236.491 90.1091 235.785 89.6926 235.184C89.2196 234.495 88.577 233.937 87.8913 233.469C86.9081 232.801 85.809 232.291 84.7038 231.858C82.9635 231.162 80.835 230.701 79.651 229.129C78.8106 228.037 78.3391 226.7 77.9003 225.407C76.0098 219.142 62.2749 173.227 60.792 167.74C60.0661 165.059 59.2986 161.976 58.7616 159.252C57.9941 155.315 57.4319 151.246 57.8528 147.234C58.1101 144.414 58.9371 141.15 59.3655 138.356C59.6645 136.471 59.7924 134.525 59.7567 132.617C59.6422 127.018 58.5534 121.421 57.2504 115.989C55.7005 109.641 53.6955 103.295 51.0776 97.3041" stroke="#C346FF" stroke-width="2.75" stroke-miterlimit="10" stroke-linecap="round" stroke-linejoin="round"/>
<path d="M144.968 28.8245C143.572 28.4378 142.099 28.3575 140.656 28.414C138.751 28.4988 136.85 28.8438 135.032 29.421C133.372 29.955 131.753 30.6912 130.342 31.7265C129.344 32.4583 128.459 33.3493 127.735 34.3518C126.481 36.0802 125.708 38.1194 125.233 40.1899C124.501 43.3983 124.412 46.7569 124.415 50.0367L124.659 62.4403C124.666 66.8267 124.522 71.3024 123.54 75.5936C122.943 78.2025 121.93 80.7267 120.759 83.1274C119.234 86.3521 117.03 89.8 116.032 93.2345C115.54 94.9093 115.416 96.6897 115.708 98.4122C116.02 100.332 116.764 102.165 117.687 103.868C118.947 106.182 120.561 108.327 122.243 110.35C126.286 115.153 130.881 119.596 136.097 123.111C139.307 125.235 142.84 127.067 146.676 127.676C149.264 128.091 151.94 127.914 154.468 127.24C157.672 126.392 160.659 124.818 163.39 122.962C167.595 120.071 171.29 116.342 173.876 111.924C175.224 109.65 176.164 107.13 176.929 104.607C177.705 102.086 178.478 98.7364 179.627 96.3938C180.066 95.4968 180.661 94.6743 181.4 94.002C182.578 92.9206 184.163 91.9999 185.328 90.9037C186.482 89.855 187.4 88.5684 188.193 87.2327C189.396 85.1919 190.37 82.9831 191.145 80.7445C191.669 79.1887 192.137 77.5734 192.335 75.9402C192.484 74.6952 192.399 73.4205 191.728 72.3287C191.086 71.2845 190.101 70.23 188.824 70.0782C187.889 69.9711 186.915 70.459 186.052 70.7595C185.731 70.8725 185.399 70.9856 185.059 71.0183C184.886 71.0331 184.706 71.0257 184.543 70.9603L184.525 70.9528L184.507 70.9454L184.489 70.9365L184.471 70.9276L184.453 70.9186L184.436 70.9082L184.419 70.8978L184.403 70.8874L184.387 70.877L184.37 70.8651L184.354 70.8532L184.337 70.8413L184.323 70.8279L184.308 70.8145L184.293 70.8011L184.278 70.7877L184.263 70.7729L184.248 70.758L184.233 70.7431L184.218 70.7267L184.205 70.7104L184.192 70.694L184.178 70.6777L184.165 70.6598L184.152 70.642C183.98 70.404 183.887 70.1199 183.817 69.8373C183.604 68.9032 183.604 67.9081 183.6 66.9532C183.604 64.6729 183.787 61.4824 183.69 59.226C183.618 57.1689 183.403 55.0731 183.027 53.0502C182.109 48.0792 180.223 43.2183 177.146 39.177C174.955 36.3003 172.161 33.8803 169.033 32.0716C166.103 30.4071 162.782 29.1488 159.368 29.2514C157.885 29.305 156.423 29.6857 155.017 30.1394C153.79 30.5217 152.285 31.13 150.991 31.1776C149.612 31.2446 148.342 30.361 147.173 29.7437C146.474 29.3704 145.736 29.0387 144.968 28.8245Z" stroke="#C346FF" stroke-width="2.75" stroke-miterlimit="10" stroke-linecap="round" stroke-linejoin="round"/>
<path d="M111.051 151.251C116.389 154.403 122.029 157.204 127.918 159.175C132.773 160.802 137.855 161.882 142.957 162.322C147.977 162.761 153.127 162.617 158.136 162.107C163.772 161.516 169.46 160.439 174.886 158.796C179.973 157.226 185.057 155.165 189.163 151.698C191.949 149.401 194.299 146.343 196.531 143.517" stroke="#C346FF" stroke-width="2.75" stroke-miterlimit="10" stroke-linecap="round" stroke-linejoin="round"/>
<path d="M131.913 119.995C132.684 121.833 133.152 123.8 133.42 125.772C133.752 128.248 133.777 130.793 133.524 133.279C133.21 136.133 132.606 139.122 130.766 141.412C129.521 142.987 127.866 144.191 126.166 145.232C123.3 146.965 120.16 148.336 117.011 149.471C113.243 150.801 109.31 151.833 105.333 152.254C102.208 152.58 98.9608 152.501 95.9815 151.414C93.0647 150.375 90.4825 148.425 88.6842 145.906C87.5195 144.333 86.7699 142.392 85.9548 140.627C85.4535 139.554 84.863 138.503 84.0925 137.6C82.9427 136.26 81.4791 135.207 80.0274 134.217L76.0574 131.629C74.9166 130.86 73.7594 130.042 72.7791 129.075C72.4147 128.707 72.0533 128.315 71.8123 127.853C71.7052 127.637 71.6145 127.386 71.6829 127.145L71.6859 127.136L71.6889 127.127L71.6919 127.118L71.6948 127.109L71.6978 127.1L71.7008 127.091L71.7052 127.082L71.7097 127.073L71.7142 127.064L71.7186 127.056L71.7231 127.047L71.7276 127.038L71.732 127.029L71.7365 127.02L71.7409 127.011L71.7454 127.002L71.7513 126.995L71.7573 126.987L71.7632 126.98L71.7692 126.972L71.7752 126.965L71.7811 126.957C71.7885 126.947 71.7989 126.937 71.8079 126.926L71.8198 126.914L71.8317 126.902L71.8451 126.89L71.8584 126.879L71.8718 126.867L71.8867 126.855L71.9016 126.843L71.9165 126.832L71.9313 126.822L71.9477 126.812L71.9641 126.801L71.9804 126.791L71.9983 126.78L72.0161 126.77C72.2601 126.639 72.5367 126.581 72.8059 126.536C74.4674 126.306 77.295 126.507 78.9951 126.508C81.0076 126.52 83.0721 126.477 85.0296 125.971C87.7977 125.283 90.2832 123.661 92.0354 121.411C92.7255 120.535 93.3324 119.575 93.7221 118.525C94.0835 117.56 94.2412 116.517 94.1862 115.488C94.1207 114.17 93.7206 112.888 93.2134 111.677C92.3477 109.621 91.1399 107.625 89.9634 105.732L84.7321 97.6521C79.9738 90.1838 75.8447 81.5478 77.8409 72.4924C78.9341 67.5273 81.6353 63.0829 84.3632 58.8571C87.1997 54.5287 91.8955 48.1908 94.0404 43.5813C95.867 39.7512 96.932 35.2666 98.7288 31.4216C99.9202 28.8364 101.495 26.4164 103.323 24.2358C105.816 21.2565 108.687 18.5613 111.669 16.0773C115.317 13.0653 119.279 10.26 123.371 7.88903C126.325 6.18593 129.434 4.63752 132.658 3.516C134.604 2.84815 136.628 2.31714 138.685 2.16988C141.242 1.97503 143.81 2.49116 146.201 3.37618C147.457 3.8358 149.129 4.55868 150.394 4.80113C150.973 4.90525 151.57 4.90378 152.153 4.84577C152.809 4.79519 153.688 4.61967 154.338 4.58992C154.898 4.55422 155.465 4.5572 156.023 4.62116C157.329 4.76693 158.615 5.13284 159.85 5.57311C161.544 6.18445 163.189 6.97575 164.757 7.85779C172.515 12.2026 178.559 19.0075 183.394 26.3688C187.065 32.0344 190.359 38.1834 192.318 44.6641C192.93 46.7168 193.429 49.5116 193.845 51.6401C194.149 53.1112 194.541 54.5867 195.136 55.9685C196.045 58.1417 198.083 61.0511 199.337 63.0769C200.35 64.7131 201.318 66.4281 202.047 68.2115C202.847 70.1556 203.378 72.2291 203.482 74.3338C203.604 76.7627 203.188 79.1991 202.628 81.5552C201.568 86.0398 199.496 91.2071 198.409 95.6828C198.153 96.782 197.938 97.9184 197.892 99.0473C197.861 99.8818 197.919 100.737 198.202 101.527C198.475 102.299 198.965 102.982 199.533 103.566C200.579 104.64 201.952 105.535 203.021 106.583C203.818 107.35 204.504 108.254 204.913 109.288C205.428 110.591 205.566 112.015 205.614 113.404C205.734 117.74 204.801 122.653 204.987 126.989C205.083 128.613 205.3 130.346 206.301 131.684C207.088 132.726 208.263 133.385 209.435 133.908C210.345 134.331 211.727 134.78 212.494 135.44C212.726 135.642 212.918 135.901 213.006 136.2C213.26 137.082 212.771 138.012 212.256 138.705C210.738 140.66 208.411 141.812 206.073 142.482C203.629 143.173 201.065 143.44 198.532 143.508C195.114 143.588 191.638 143.289 188.273 142.679C184.867 142.026 181.398 141.127 178.458 139.223C177.327 138.483 176.299 137.576 175.425 136.547C174.379 135.323 173.528 133.924 172.789 132.498C171.537 130.056 170.589 127.424 169.976 124.749C169.477 122.534 169.196 120.245 169.279 117.97" stroke="#C346FF" stroke-width="2.75" stroke-miterlimit="10" stroke-linecap="round" stroke-linejoin="round"/>
<path d="M183.33 811.861C184.831 815.086 185.666 818.602 186.094 822.123C186.348 824.303 186.588 826.732 186.661 828.925C186.719 830.61 186.635 832.697 187.037 834.333C187.233 835.132 187.568 835.925 188.154 836.518C188.865 837.238 189.866 837.555 190.837 837.742C192.621 838.076 194.645 838.053 196.463 838.08H256.233L256.708 838.073L256.933 838.067C257.514 838.043 258.118 838.01 258.682 837.855C259.251 837.707 259.762 837.384 260.083 836.878C260.52 836.19 260.685 835.366 260.815 834.571C261.06 832.847 261.048 831.08 260.858 829.353C260.702 828.043 260.418 826.597 259.361 825.702C258.862 825.272 258.249 824.995 257.624 824.799C256.004 824.306 254.199 824.18 252.516 824.016C246.599 823.539 240.355 823.108 234.636 821.485C233.083 821.046 231.572 820.423 230.151 819.66C228.319 818.683 226.446 817.457 224.719 816.297C220.788 813.627 215.591 809.794 211.748 806.954C212.02 805.955 212.097 804.903 212.11 803.869C212.124 802.288 211.971 800.645 211.791 799.074C207.209 768.179 206.887 734.77 206.51 703.51C208.127 702.708 209.079 701.115 209.677 699.471C210.63 696.804 210.916 693.923 211.109 691.112C211.356 687.202 211.26 682.653 211.161 678.713C210.14 645.298 204.13 593.613 202.769 560.125C202.072 542.245 202.228 523.933 204.55 506.175C206.829 487.014 213.378 460.936 216.292 441.832C217.547 433.307 218.127 424.363 218.313 415.75L218.493 400.67C220.645 399.556 222.796 397.914 223.449 395.47C223.8 394.209 223.799 392.872 223.677 391.578C223.324 387.829 221.285 381.563 220.343 377.869C216.421 363.102 215.906 342.927 213.883 327.757C213.135 321.968 212.006 315.878 210.638 310.205C208.984 303.19 206.354 294.7 204.236 287.764C205.419 286.103 206.265 284.2 207.004 282.307C208.08 279.487 209.577 274.999 210.693 272.21C213.492 265.047 217.154 256.902 220.421 249.92C222.232 250.269 224.13 250.393 225.975 250.451C228.227 250.486 231.117 250.672 233.333 250.4C234.962 250.193 236.924 249.758 237.691 248.13C238.062 247.357 238.158 246.482 238.179 245.634C238.192 242.795 237.444 239.163 237.2 236.332C236.671 230.827 236.903 225.105 237.203 219.588C238.477 201.323 240.443 181.132 238.133 162.98C237.731 159.951 237.2 156.858 236.333 153.926C235.606 151.485 234.587 149.092 233.076 147.029C230.92 144.049 227.794 141.915 224.486 140.392C220.855 138.738 216.909 137.716 212.918 137.537C213.135 136.956 213.171 136.261 212.777 135.745C212.615 135.528 212.403 135.352 212.18 135.201C211.477 134.725 210.217 134.264 209.436 133.911C208.242 133.379 207.043 132.702 206.256 131.628C205.845 131.073 205.575 130.428 205.39 129.766C205.111 128.759 205.011 127.695 204.974 126.652C204.847 122.317 205.778 117.398 205.601 113.06C205.536 111.754 205.38 110.422 204.877 109.205C204.465 108.207 203.794 107.334 203.021 106.589C201.951 105.543 200.577 104.644 199.533 103.572C198.963 102.988 198.475 102.306 198.202 101.533C197.935 100.792 197.868 99.9933 197.886 99.2124C197.919 98.0284 198.141 96.84 198.408 95.6887C199.496 91.2145 201.566 86.0443 202.627 81.5612C203.186 79.2051 203.602 76.7687 203.48 74.3397C203.375 72.2365 202.844 70.1615 202.045 68.2175C201.316 66.4341 200.348 64.7191 199.335 63.0829C198.078 61.0541 196.051 58.1595 195.134 55.9745C194.54 54.5927 194.148 53.1171 193.843 51.6461C193.428 49.5354 192.932 46.7242 192.316 44.6701C190.357 38.1879 187.064 32.0403 183.393 26.3747C178.557 19.0135 172.512 12.207 164.755 7.86375C163.186 6.98171 161.541 6.18891 159.848 5.57906C158.614 5.14027 157.327 4.77288 156.021 4.62711C154.727 4.46201 153.43 4.70149 152.151 4.85172C151.547 4.91419 150.925 4.90972 150.327 4.79519C148.919 4.49473 147.503 3.84771 146.198 3.38214C143.805 2.49712 141.239 1.98098 138.682 2.17583C136.624 2.32309 134.601 2.85411 132.655 3.52196C129.43 4.64348 126.322 6.19188 123.368 7.89498C119.276 10.2659 115.312 13.0697 111.666 16.0833C108.684 18.5673 105.813 21.2625 103.32 24.2418C101.492 26.4223 99.917 28.8424 98.7256 31.4275C96.9287 35.274 95.8653 39.7541 94.0372 43.5872C91.8938 48.1908 87.1638 54.5852 84.36 58.8631C81.6321 63.0888 78.9309 67.5333 77.8377 72.4983C75.843 81.5537 79.9721 90.1897 84.7289 97.6581L89.9602 105.738C91.1367 107.634 92.343 109.626 93.2102 111.683C93.7174 112.894 94.119 114.176 94.183 115.494C94.238 116.523 94.0803 117.566 93.7189 118.531C93.347 119.535 92.7729 120.459 92.1199 121.305C91.2646 122.412 90.2383 123.396 89.0766 124.177C87.848 125.009 86.4632 125.611 85.0264 125.977C83.0704 126.483 81.0029 126.526 78.9919 126.514C77.2769 126.513 74.4761 126.312 72.8027 126.541C72.532 126.585 72.2554 126.644 72.0129 126.774L71.9951 126.785L71.9772 126.795L71.9609 126.806L71.9445 126.816L71.9281 126.826L71.9133 126.837L71.8984 126.847L71.8835 126.859L71.8686 126.871L71.8553 126.883L71.8419 126.895L71.8285 126.907L71.8166 126.919L71.8047 126.931C71.7957 126.94 71.7853 126.951 71.7779 126.962L71.772 126.969L71.766 126.977L71.76 126.984L71.7541 126.992L71.7481 126.999L71.7422 127.006L71.7377 127.015L71.7333 127.024L71.7288 127.033L71.7243 127.042L71.7199 127.051L71.7154 127.06L71.711 127.069L71.7065 127.078L71.702 127.087L71.6976 127.096L71.6946 127.105L71.6916 127.114L71.6887 127.122L71.6857 127.131L71.6827 127.14L71.6797 127.149C71.6143 127.381 71.6961 127.622 71.7972 127.832C72.0382 128.306 72.4056 128.705 72.7774 129.08C73.7963 130.085 75.0086 130.933 76.1956 131.729L79.7535 134.042C72.8161 133.975 65.8892 135.387 59.4293 137.882C59.8398 135.108 59.822 132.259 59.5899 129.468C59.2925 125.886 58.6425 122.22 57.8749 118.708C56.2492 111.42 54.0597 104.161 51.073 97.3115C51.3868 96.1097 51.4567 94.8498 51.4448 93.6123C51.4136 91.7024 51.1562 89.7717 50.7249 87.9125C50.4408 86.7225 50.0838 85.5296 49.5721 84.4155C49.1289 83.4517 48.5339 82.534 47.7143 81.8497C46.984 81.2325 46.099 80.8234 45.1902 80.5467C44.088 80.2106 42.9263 80.0306 41.781 79.9146C37.9449 79.5636 34.0241 79.8268 30.1984 80.2031L4.41542 65.8064L1.9939 70.1422L22.7598 81.7367C21.4405 82.2394 20.136 82.9311 19.2183 84.0288C18.6679 84.6833 18.2723 85.4597 17.9763 86.2584C17.4274 87.7176 16.9901 90.0172 16.6153 91.5477C15.2915 97.0646 12.2854 102.866 10.8961 108.365C10.5719 109.715 10.3532 111.125 10.5436 112.512C10.6909 113.646 11.1267 114.725 11.683 115.718C13.221 118.37 15.5131 121.153 17.3679 123.617C21.03 128.347 28.5414 137.656 31.8197 142.447C32.7345 143.794 33.6478 145.217 34.3959 146.66C36.1987 150.078 37.1596 153.884 37.8884 157.658C39.0337 163.765 39.5499 170.145 39.8697 176.347C40.8157 196.057 39.5023 224.352 40.0556 244.114C40.2713 250.962 40.7502 257.956 42.5024 264.604C43.5882 268.751 45.1396 272.834 46.9944 276.696C48.8076 280.437 50.9778 284.055 53.6581 287.241C51.5281 292.13 50.1626 299.128 48.8374 304.328C48.3881 306.298 47.9865 308.401 48.5652 310.385C48.8641 311.419 49.4531 312.348 50.1359 313.171C51.3154 314.583 52.7865 315.758 54.2501 316.86C55.2824 317.604 57.0628 318.929 58.0966 319.628C56.3518 325.282 47.4407 362.356 45.7881 368.943C44.7692 373.11 43.4856 378.415 42.6854 382.592C42.1216 385.552 41.5995 388.634 41.4047 391.64C41.3125 393.406 41.2634 395.229 41.7349 396.949C41.9759 397.798 42.4042 398.607 43.0498 399.217C43.911 400.04 45.0519 400.486 46.1645 400.856C41.7632 420.676 35.7242 448.204 32.5367 467.899C25.4818 510.579 20.5941 556.527 16.7239 599.633C15.3614 616.155 13.6836 637.618 13.0931 654.084C12.7673 663.776 12.6557 674.106 13.2656 683.766C13.4887 687.364 13.8695 691.859 14.2518 695.443C14.4094 696.796 14.6013 698.256 14.8958 699.583C15.1933 700.937 15.6023 702.289 16.233 703.526C17.0347 705.125 18.2827 706.511 19.8549 707.379C21.4405 708.264 23.2373 708.708 25.0207 708.978C27.8468 709.39 30.7607 709.369 33.6091 709.235C41.491 708.817 50.121 707.34 57.9419 706.169C60.1403 723.776 62.2986 743.633 63.5524 761.295C64.3631 772.028 65.0071 789.743 65.91 800.427C66.1063 802.281 66.2982 804.204 66.8263 805.995C67.0018 806.562 67.2279 807.125 67.5744 807.61C65.1038 810.649 62.242 813.402 59.0679 815.697C56.1198 817.841 52.8638 819.594 49.5067 821.004C46.7758 822.172 42.2808 823.667 39.5424 824.835C38.7928 825.159 38.0178 825.519 37.3128 825.928C36.5185 826.389 35.7599 826.942 35.1694 827.652C34.5551 828.379 34.1475 829.263 33.8843 830.173C33.5734 831.251 33.4395 832.382 33.441 833.502C33.444 834.21 33.499 834.925 33.6388 835.618C33.7251 836.036 33.8411 836.459 34.0345 836.841C34.2219 837.217 34.5135 837.549 34.8927 837.739C35.5606 838.071 36.337 838.067 37.0674 838.086L100.716 838.089C100.96 838.077 101.529 838.095 101.761 838.077C102.353 838.053 102.966 838 103.508 837.738C104.085 837.467 104.486 836.933 104.729 836.358C105.264 835.043 105.377 833.591 105.41 832.184C105.425 830.667 105.273 829.129 104.93 827.65C104.656 826.474 104.233 825.306 103.781 824.186L102.291 820.63C101.241 818.077 100.488 815.386 100.039 812.664C99.6478 810.292 99.4514 807.859 99.5912 805.455C100.505 804.702 101.211 803.712 101.647 802.612C102.524 800.362 102.548 797.873 102.571 795.489L102.289 780.191C102.282 770.404 102.758 759.296 103.28 749.505C104.187 734.102 105.404 716.058 107.198 700.801C125.019 699.79 143.424 699.605 161.244 700.644C162.158 710.184 163.729 720.163 165.579 729.567C167.633 740.441 172.41 759.006 175.13 769.917C175.868 773.039 176.606 776.426 177.006 779.596C177.63 784.136 177.984 792.801 178.275 797.481C178.44 799.986 178.594 802.752 178.993 805.22C179.173 806.288 179.406 807.369 179.814 808.375C180.123 809.135 180.553 809.856 181.133 810.439C181.746 811.064 182.521 811.522 183.33 811.861Z" stroke="#C346FF" stroke-width="3.5" stroke-miterlimit="10" stroke-linecap="round" stroke-linejoin="round"/>
</svg>
