<svg width="261" height="838" viewBox="0 0 261 838" fill="none" xmlns="http://www.w3.org/2000/svg">
<path d="M66.5717 806.603C64.101 809.642 61.2392 812.395 58.0651 814.69C55.117 816.833 51.861 818.587 48.5039 819.997C45.773 821.165 41.278 822.659 38.5397 823.827C37.79 824.151 37.015 824.511 36.31 824.92C35.5157 825.382 34.7571 825.935 34.1666 826.644C33.5523 827.372 33.1448 828.255 32.8815 829.166C32.5706 830.244 32.4368 831.374 32.4382 832.494C32.4412 833.202 32.4962 833.918 32.6361 834.611C32.7223 835.029 32.8384 835.451 33.0317 835.834C33.2191 836.21 33.5107 836.542 33.89 836.732C34.5578 837.064 35.3343 837.059 36.0646 837.079L99.713 837.082C99.9569 837.07 100.527 837.087 100.759 837.07C101.351 837.046 101.963 836.992 102.505 836.731C103.082 836.46 103.484 835.926 103.726 835.35C104.262 834.035 104.375 832.584 104.407 831.177C104.422 829.659 104.27 828.121 103.927 826.643C103.653 825.466 103.231 824.299 102.779 823.179L101.288 819.622C100.238 817.07 99.4854 814.379 99.0362 811.657C98.645 809.285 98.4486 806.851 98.5885 804.447M160.236 699.639C161.151 709.179 162.722 719.159 164.572 728.562C166.626 739.437 171.402 758.001 174.123 768.913C175.058 772.798 175.887 776.9 176.262 780.872C176.983 787.709 177.023 797.009 177.923 803.811C178.167 805.355 178.479 806.945 179.271 808.312C179.637 808.939 180.123 809.499 180.702 809.939C181.469 810.527 182.374 810.919 183.29 811.212C185.989 812.041 188.868 812.167 191.674 812.164C195.933 812.103 200.243 811.666 204.398 810.713C206.186 810.263 208.116 809.741 209.434 808.376C210.55 807.214 210.953 805.572 211.064 804.007C211.222 801.734 210.951 799.404 210.679 797.149C206.168 766.57 205.903 733.442 205.51 702.507M56.939 705.162C59.1433 722.77 61.2912 742.624 62.5495 760.287C63.3661 771.022 63.9998 788.734 64.9071 799.42C65.0826 801.093 65.2656 802.832 65.6761 804.464C65.8471 805.12 66.0599 805.779 66.4124 806.362C66.6623 806.777 66.9984 807.143 67.4045 807.409C67.8581 807.709 68.3832 807.889 68.9098 808.013C70.18 808.3 71.5603 808.356 72.8603 808.435C75.7653 808.575 78.7803 808.562 81.6852 808.444C85.5481 808.26 89.4942 807.952 93.2425 806.957C95.3532 806.368 97.5114 805.551 99.0955 803.982C100.213 802.877 100.852 801.38 101.159 799.856C101.519 798.105 101.557 796.268 101.565 794.483L101.284 779.185C101.276 769.398 101.752 758.29 102.274 748.5C103.182 733.096 104.398 715.052 106.192 699.795M45.1631 399.849C40.7589 419.667 34.7244 447.198 31.5354 466.891C25.6214 502.335 21.2275 541.437 17.68 577.23C15.0339 606.717 11.9088 639.092 11.821 668.64C11.8389 676.414 12.2598 684.505 13.0244 692.247C13.243 694.271 13.4438 696.594 13.893 698.574C14.247 700.185 14.7572 701.791 15.6155 703.209C16.2744 704.302 17.1594 705.268 18.2214 705.982C19.5542 706.883 21.1145 707.397 22.6777 707.731C25.3164 708.28 28.0607 708.352 30.7485 708.297C33.8052 708.226 37.0522 707.921 40.091 707.576C52.6553 705.979 71.9487 702.654 84.4713 701.525C115.06 698.463 146.251 697.967 176.87 700.909C178.244 701.031 199.513 703.359 200.111 703.288C201.084 703.326 202.08 703.338 203.047 703.213C203.751 703.123 204.454 702.968 205.11 702.693C206.01 702.324 206.802 701.707 207.385 700.93C208.252 699.785 208.756 698.409 209.128 697.033C209.787 694.513 210.017 691.858 210.157 689.263C210.345 685.659 210.254 681.344 210.162 677.713M210.162 677.713C208.783 632.228 200.117 575.316 201.588 529.848C202.028 514.354 204.139 498.688 207.069 483.475C208.885 474.083 214.609 447.445 215.677 438.031C216.674 430.435 217.144 422.408 217.313 414.748L217.493 399.669M210.162 677.713C210.26 681.653 210.356 686.202 210.109 690.112C209.916 692.923 209.63 695.804 208.677 698.471C208.079 700.115 207.127 701.708 205.51 702.51C205.887 733.77 206.209 767.179 210.791 798.074C210.971 799.645 211.124 801.288 211.11 802.869C211.097 803.903 211.02 804.955 210.748 805.954C214.591 808.794 219.788 812.627 223.72 815.297C225.446 816.457 227.319 817.683 229.152 818.66C230.572 819.423 232.083 820.046 233.636 820.485C239.355 822.108 245.6 822.539 251.516 823.016C253.199 823.18 255.005 823.307 256.624 823.799C257.249 823.995 257.862 824.272 258.362 824.702C259.418 825.597 259.702 827.043 259.858 828.353C260.048 830.08 260.06 831.847 259.815 833.571C259.685 834.366 259.52 835.19 259.083 835.878C258.762 836.384 258.252 836.707 257.682 836.856C257.118 837.01 256.514 837.043 255.933 837.067L255.708 837.073L255.234 837.08H195.463C193.645 837.053 191.621 837.076 189.837 836.742C188.866 836.555 187.865 836.238 187.154 835.518C186.568 834.925 186.233 834.132 186.037 833.333C185.636 831.697 185.719 829.61 185.661 827.925C185.588 825.733 185.348 823.304 185.094 821.123C184.666 817.602 183.831 814.086 182.33 810.861C181.521 810.522 180.746 810.064 180.133 809.439C179.553 808.856 179.123 808.135 178.814 807.375C178.406 806.369 178.173 805.288 177.993 804.22C177.594 801.752 177.44 798.986 177.275 796.481C176.984 791.801 176.63 783.136 176.006 778.596C175.606 775.426 174.868 772.039 174.13 768.917C171.41 758.006 166.633 739.441 164.579 728.567C162.729 719.163 161.158 709.184 160.243 699.644C142.424 698.605 124.019 698.79 106.198 699.801C104.404 715.058 103.187 733.102 102.28 748.505C101.758 758.296 101.282 769.404 101.289 779.191L101.571 794.489C101.548 796.873 101.524 799.362 100.647 801.612C100.211 802.712 99.5045 803.702 98.5912 804.455C98.4514 806.859 98.6478 809.292 99.039 811.664C99.4882 814.386 100.241 817.077 101.291 819.63L102.781 823.186C103.233 824.306 103.656 825.474 103.93 826.65C104.273 828.129 104.425 829.667 104.41 831.184C104.377 832.591 104.264 834.043 103.729 835.358C103.486 835.933 103.085 836.467 102.508 836.738C101.966 837 101.353 837.053 100.761 837.077C100.529 837.095 99.9597 837.077 99.7158 837.089L36.0674 837.086C35.337 837.067 34.5606 837.071 33.8927 836.739C33.5135 836.549 33.2219 836.217 33.0345 835.841C32.8411 835.459 32.7251 835.036 32.6388 834.618C32.499 833.925 32.444 833.21 32.441 832.502C32.4395 831.382 32.5734 830.251 32.8843 829.173C33.1475 828.263 33.5551 827.379 34.1694 826.652C34.7599 825.942 35.5185 825.389 36.3128 824.928C37.0178 824.519 37.7928 824.159 38.5424 823.835C41.2808 822.667 45.7758 821.172 48.5067 820.004C51.8638 818.594 55.1198 816.841 58.0679 814.697C61.242 812.402 64.1038 809.649 66.5744 806.61C66.2279 806.125 66.0018 805.562 65.8263 804.995C65.2982 803.204 65.1063 801.281 64.91 799.427C64.0071 788.743 63.3631 771.028 62.5524 760.295C61.2985 742.633 59.1403 722.776 56.9419 705.169C49.121 706.34 40.491 707.817 32.6091 708.235C29.7607 708.369 26.8468 708.39 24.0207 707.978C22.2373 707.708 20.4405 707.264 18.8549 706.379C17.2827 705.511 16.0347 704.125 15.233 702.526C14.6023 701.289 14.1933 699.937 13.8958 698.583C13.6013 697.256 13.4094 695.796 13.2518 694.443C12.8695 690.859 12.4887 686.364 12.2656 682.766C11.6557 673.106 11.7673 662.776 12.0931 653.084C12.6836 636.618 14.3614 615.155 15.7239 598.633C19.5941 555.527 24.4818 509.579 31.5367 466.899C34.7242 447.204 40.7632 419.676 45.1645 399.856C44.0519 399.486 42.911 399.04 42.0498 398.217C41.4042 397.607 40.9759 396.798 40.7349 395.949C40.2634 394.229 40.3125 392.406 40.4047 390.64C40.5995 387.634 41.1216 384.552 41.6854 381.592C42.4856 377.415 43.7692 372.11 44.7881 367.943C46.4407 361.356 55.3518 324.282 57.0966 318.628C56.0628 317.929 54.2824 316.604 53.2501 315.86C51.7865 314.758 50.3154 313.583 49.1359 312.171C48.4531 311.348 47.8641 310.419 47.5652 309.385C46.9865 307.401 47.3881 305.298 47.8373 303.328C49.1626 298.128 50.5281 291.13 52.6581 286.241C49.9777 283.055 47.8076 279.437 45.9944 275.696C44.1396 271.834 42.5882 267.751 41.5024 263.604C39.7502 256.956 39.2713 249.962 39.0556 243.114C38.5023 223.352 39.8157 195.057 38.8697 175.347C38.5499 169.145 38.0337 162.765 36.8884 156.658C36.1596 152.884 35.1987 149.078 33.3959 145.66C32.6478 144.217 31.7345 142.794 30.8197 141.447C27.5414 136.656 20.03 127.347 16.3679 122.617C14.5131 120.153 12.221 117.37 10.683 114.718C10.1267 113.725 9.69086 112.646 9.5436 111.511C9.35321 110.125 9.57186 108.715 9.89612 107.365C11.2854 101.866 14.2915 96.0646 15.6153 90.5477C15.9901 89.0172 16.4274 86.7176 16.9763 85.2584C17.2723 84.4597 17.6679 83.6833 18.2183 83.0288C19.136 81.9311 20.4405 81.2394 21.7598 80.7367L0.993896 69.1422L3.41542 64.8064L29.1984 79.2031C33.0241 78.8268 36.9449 78.5635 40.781 78.9146C41.9263 79.0306 43.088 79.2106 44.1902 79.5467C45.099 79.8234 45.984 80.2325 46.7143 80.8497C47.5339 81.534 48.1289 82.4517 48.5721 83.4155C49.0838 84.5296 49.4408 85.7225 49.7249 86.9125C50.1562 88.7717 50.4136 90.7024 50.4448 92.6123C50.4567 93.8498 50.3868 95.1097 50.073 96.3115C53.0597 103.161 55.2492 110.42 56.8749 117.708C57.6425 121.22 58.2925 124.886 58.5899 128.468C58.822 131.259 58.8398 134.108 58.4293 136.882C64.8892 134.387 71.8161 132.975 78.7535 133.042L75.1956 130.729C74.0086 129.933 72.7963 129.085 71.7775 128.08C71.4056 127.705 71.0382 127.306 70.7972 126.832C70.6961 126.622 70.6143 126.381 70.6797 126.149L70.6827 126.14L70.6857 126.131L70.6976 126.096L70.702 126.087L70.7065 126.078L70.711 126.069L70.7154 126.06L70.7199 126.051L70.7243 126.042L70.7288 126.033L70.7333 126.024L70.7377 126.015L70.7422 126.006L70.7481 125.999L70.7541 125.992L70.766 125.977L70.772 125.969L70.7779 125.962C70.7853 125.951 70.7957 125.94 70.8047 125.931L70.8285 125.907L70.8686 125.871L70.8984 125.847L70.9281 125.826L70.9772 125.795L71.0129 125.774C71.2554 125.644 71.532 125.586 71.8027 125.541C73.4761 125.312 76.2769 125.513 77.9919 125.514C80.0029 125.526 82.0704 125.483 84.0264 124.977C85.4632 124.611 86.848 124.009 88.0766 123.177C89.2383 122.396 90.2646 121.412 91.1199 120.305C91.7729 119.459 92.347 118.535 92.7189 117.531C93.0803 116.566 93.238 115.523 93.183 114.494C93.119 113.176 92.7174 111.894 92.2102 110.683C91.343 108.626 90.1367 106.634 88.9602 104.738L83.7289 96.6581C78.9721 89.1897 74.843 80.5537 76.8377 71.4983C77.9309 66.5333 80.6321 62.0888 83.36 57.8631C86.1638 53.5852 90.8938 47.1908 93.0372 42.5872C94.8653 38.7541 95.9287 34.274 97.7256 30.4275C98.917 27.8424 100.492 25.4223 102.32 23.2418C104.813 20.2625 107.684 17.5673 110.666 15.0833C114.312 12.0697 118.276 9.26594 122.368 6.89498C125.322 5.19188 128.43 3.64348 131.655 2.52196C133.601 1.85411 135.624 1.32309 137.682 1.17583C140.239 0.980982 142.805 1.49712 145.198 2.38214C146.503 2.84771 147.919 3.49473 149.327 3.79519C149.925 3.90972 150.547 3.91419 151.151 3.85172C152.43 3.70149 153.727 3.46201 155.021 3.62711C156.327 3.77288 157.614 4.14027 158.848 4.57906C160.541 5.18891 162.186 5.98171 163.755 6.86375C171.512 11.207 177.557 18.0135 182.393 25.3748C186.064 31.0403 189.357 37.1879 191.316 43.6701C191.932 45.7242 192.428 48.5354 192.843 50.6461C193.148 52.1172 193.54 53.5927 194.134 54.9745C195.051 57.1595 197.078 60.0541 198.335 62.0829C199.348 63.7191 200.316 65.4341 201.045 67.2175C201.844 69.1615 202.375 71.2365 202.48 73.3397C202.602 75.7687 202.186 78.2051 201.627 80.5612C200.566 85.0443 198.496 90.2145 197.408 94.6887C197.141 95.84 196.919 97.0284 196.886 98.2124C196.868 98.9933 196.935 99.7921 197.202 100.533C197.475 101.306 197.963 101.988 198.533 102.572C199.577 103.645 200.951 104.543 202.021 105.589C202.794 106.334 203.465 107.207 203.877 108.205C204.38 109.422 204.536 110.754 204.601 112.06C204.778 116.398 203.847 121.317 203.974 125.652C204.011 126.695 204.111 127.759 204.39 128.766C204.575 129.428 204.845 130.073 205.256 130.628C206.043 131.702 207.242 132.379 208.436 132.911C209.217 133.264 210.477 133.725 211.18 134.201C211.403 134.352 211.615 134.528 211.777 134.745C212.171 135.261 212.135 135.956 211.918 136.537C215.909 136.716 219.855 137.738 223.486 139.392C226.794 140.915 229.92 143.049 232.076 146.029C233.587 148.092 234.606 150.485 235.333 152.926C236.2 155.858 236.731 158.951 237.133 161.98C239.443 180.132 237.477 200.323 236.203 218.588C235.903 224.105 235.671 229.827 236.2 235.332C236.444 238.163 237.192 241.795 237.179 244.634C237.158 245.482 237.062 246.357 236.691 247.13C235.924 248.758 233.962 249.193 232.333 249.4C230.117 249.672 227.227 249.486 224.975 249.451C223.13 249.393 221.232 249.269 219.421 248.92C216.154 255.902 212.492 264.047 209.693 271.21C208.577 273.999 207.08 278.487 206.004 281.307C205.265 283.2 204.419 285.103 203.236 286.764C205.354 293.7 207.984 302.19 209.638 309.205C211.006 314.878 212.135 320.968 212.883 326.757C214.906 341.927 215.421 362.102 219.343 376.87C220.285 380.563 222.324 386.829 222.677 390.578C222.799 391.872 222.8 393.209 222.449 394.47C221.796 396.914 219.645 398.556 217.493 399.67L217.313 414.75C217.127 423.363 216.547 432.307 215.292 440.832C212.378 459.936 205.829 486.014 203.55 505.175C201.228 522.933 201.072 541.245 201.769 559.125C203.13 592.613 209.14 644.298 210.162 677.713ZM57.095 318.622C53.7275 330.724 45.743 364.061 42.7904 376.315C41.9827 380.116 41.0769 384.222 40.6381 388.079C40.4581 389.661 40.3139 391.296 40.3451 392.891C40.3674 393.834 40.4373 394.791 40.6679 395.708C40.8419 396.393 41.1156 397.063 41.538 397.634C41.9277 398.166 42.4424 398.599 43.0091 398.932C43.9685 399.493 45.0513 399.829 46.1118 400.143C51.358 401.596 57.1292 402.121 62.5404 402.725C89.1252 405.202 119.04 407.259 145.682 408.053C157.947 408.345 170.942 408.549 183.168 407.615C190.45 407.037 197.825 405.989 204.881 404.077C208.507 403.066 212.306 401.928 215.782 400.476C218.412 399.325 221.268 397.763 222.305 394.918C222.861 393.343 222.81 391.625 222.608 389.989C222.208 386.59 220.209 380.249 219.34 376.868C215.418 362.101 214.903 341.925 212.88 326.755C212.132 320.966 211.003 314.877 209.635 309.204C207.981 302.189 205.351 293.699 203.233 286.763M219.419 248.915C221.231 249.265 223.129 249.388 224.973 249.446C227.225 249.482 230.115 249.668 232.332 249.396C233.96 249.189 235.922 248.753 236.69 247.126C237.06 246.352 237.157 245.478 237.178 244.63C237.191 241.791 236.443 238.158 236.199 235.328C235.67 229.823 235.902 224.101 236.202 218.584C237.475 200.318 239.442 180.128 237.132 161.975C236.73 158.947 236.199 155.853 235.332 152.921C234.605 150.481 233.586 148.087 232.074 146.024C229.919 143.045 226.793 140.91 223.485 139.387C219.854 137.733 215.908 136.711 211.917 136.533M184.341 234.914C183.932 233.797 183.361 232.588 183.224 231.399C183.095 230.444 183.209 229.472 183.431 228.539C183.742 227.224 184.237 225.921 184.756 224.673C186.805 219.893 190.129 213.944 192.254 209.198C196.868 199.101 200.489 188.385 203.089 177.596M52.6554 286.235C50.5254 291.124 49.16 298.122 47.8347 303.322C47.3855 305.292 46.9839 307.395 47.5625 309.379C47.8615 310.413 48.4505 311.342 49.1332 312.165C50.3127 313.577 51.7838 314.752 53.2474 315.854C54.0015 316.403 55.8727 317.765 56.609 318.289C57.7677 319.08 59.0841 319.996 60.5581 319.822C61.2795 319.733 61.931 319.367 62.5052 318.94C64.0298 317.77 65.2138 316.199 66.3665 314.677C69.615 310.209 72.929 305.028 76.9614 301.234C77.7914 300.456 78.6794 299.702 79.6418 299.091C80.4554 298.573 81.3583 298.159 82.3206 298.035C83.0926 297.927 83.8839 297.981 84.6559 298.064C90.5788 298.922 97.3228 299.296 103.322 299.561C113.371 299.961 124.83 300.081 134.877 299.799C151.111 299.452 168.386 296.919 184.471 294.665C188.203 294.084 192.03 293.421 195.594 292.143C197.621 291.404 199.616 290.435 201.24 288.992C203.831 286.709 205.219 283.422 206.397 280.251C210.441 268.185 216.205 255.768 221.593 244.237C222.018 243.211 222.4 242.136 222.47 241.019C222.571 239.57 222.055 238.136 221.225 236.964C219.433 234.456 216.599 232.958 213.815 231.794C209.762 230.151 205.435 229.11 201.103 228.542C196.107 227.956 189.31 227.617 185.865 231.978C184.801 233.33 184.245 234.999 183.839 236.65C183.625 237.423 182.763 241.791 182.572 242.653C181.919 245.54 181.188 248.481 180.052 251.219C179.57 252.336 179.024 253.464 178.194 254.368C177.684 254.922 177.043 255.351 176.341 255.621C175.771 255.844 175.163 255.982 174.562 256.088C171.99 256.547 164.583 256.944 161.884 257.178C157.708 257.517 153.275 258.035 149.165 258.844C143.945 259.794 131.725 263.018 126.441 264.31C115.28 267.017 103.319 268.331 91.8803 269.376M58.4307 136.877C64.8905 134.379 71.8175 132.968 78.7548 133.036M89.6387 239.78C89.9897 239.32 90.2381 238.787 90.4389 238.247C90.7572 237.382 90.964 236.466 91.1276 235.558C91.5634 233.062 91.7196 230.395 91.8416 227.864C92.2536 215.313 91.9784 195.902 92.0632 183.18M21.7583 80.7307L0.993896 69.1348L3.41393 64.7989L29.1984 79.1957M34.1815 116.942C33.5508 114.927 33.0272 112.823 33.0644 110.699C33.0912 109.44 33.347 108.15 34.0119 107.064C34.5504 106.179 35.3417 105.474 36.191 104.894C37.6412 103.912 39.3027 103.227 40.9314 102.6C42.7505 101.867 45.4562 101.079 47.125 100.075C48.0785 99.5243 48.9427 98.7732 49.4797 97.8004C49.9422 96.9794 50.1802 96.0482 50.3096 95.1201C50.4703 93.9465 50.4762 92.7432 50.4093 91.5607C50.2635 89.2715 49.8589 86.969 49.1256 84.7944C48.6021 83.2742 47.8688 81.7377 46.5762 80.7263C45.834 80.1387 44.9489 79.7565 44.0446 79.4932C42.8636 79.1496 41.6216 78.9771 40.3974 78.87C36.7146 78.5784 32.9544 78.8253 29.2849 79.1853C26.3948 79.514 23.4215 79.9231 20.759 81.1546C19.8695 81.58 19.0172 82.1274 18.3553 82.8652C17.5327 83.774 17.0449 84.9297 16.6968 86.0929C16.3577 87.1862 15.8921 89.4069 15.6184 90.5403C14.369 95.6794 11.6187 101.294 10.1551 106.377C9.84871 107.481 9.58246 108.611 9.49916 109.755C9.40397 110.976 9.57651 112.218 10.0346 113.354C10.4229 114.339 10.9881 115.269 11.5726 116.149C16.0423 122.575 24.1324 132.248 28.7881 138.596C30.512 140.952 32.2508 143.38 33.5672 145.986C34.5236 147.864 35.245 149.881 35.8028 151.913C37.1281 156.775 37.7974 161.914 38.2838 166.927C40.1178 187.177 38.6973 215.722 38.9279 236.186C39.0588 245.313 39.1792 254.715 41.5026 263.593C42.4902 267.368 43.8691 271.094 45.4993 274.639C47.1384 278.171 49.0914 281.63 51.455 284.731C53.5582 287.483 56.0303 290.017 58.9516 291.903C61.031 293.251 63.3618 294.216 65.7714 294.787C69.255 295.61 72.9348 295.658 76.4318 294.883C78.8994 294.331 81.3016 293.342 83.3275 291.813C86.6504 289.329 88.8309 285.609 90.1443 281.726C92.5897 274.743 91.9664 267.142 91.2227 259.912C90.6947 254.654 89.655 247.217 89.6208 242.02C89.5702 240.205 89.7963 237.993 89.4795 236.208C89.3515 235.491 89.1091 234.785 88.6926 234.184C88.2196 233.495 87.577 232.937 86.8913 232.469C85.9081 231.801 84.809 231.291 83.7038 230.858C81.9635 230.162 79.835 229.701 78.651 228.129C77.8106 227.037 77.3391 225.7 76.9003 224.407C75.0098 218.142 61.2749 172.227 59.792 166.74C59.0661 164.059 58.2986 160.976 57.7616 158.252C56.9941 154.315 56.4319 150.246 56.8528 146.234C57.1101 143.414 57.9371 140.15 58.3655 137.355C58.6645 135.471 58.7924 133.525 58.7567 131.617C58.6422 126.018 57.5534 120.421 56.2504 114.989C54.7005 108.641 52.6955 102.295 50.0776 96.3041M110.051 150.251C115.389 153.403 121.029 156.204 126.918 158.175C131.773 159.802 136.855 160.882 141.957 161.322C146.977 161.761 152.127 161.617 157.136 161.107C162.772 160.516 168.46 159.439 173.886 157.796C178.973 156.226 184.057 154.165 188.163 150.698C190.949 148.401 193.299 145.343 195.531 142.517M130.913 118.995C131.684 120.833 132.152 122.8 132.42 124.772C132.752 127.248 132.777 129.793 132.524 132.279C132.21 135.133 131.606 138.122 129.766 140.412C128.521 141.987 126.866 143.191 125.166 144.232C122.3 145.965 119.16 147.336 116.011 148.471C112.243 149.801 108.31 150.833 104.333 151.254C101.208 151.58 97.9608 151.501 94.9815 150.414C92.0647 149.375 89.4825 147.425 87.6842 144.906C86.5195 143.333 85.7699 141.392 84.9548 139.627C84.4535 138.554 83.863 137.503 83.0925 136.6C81.9427 135.26 80.4791 134.207 79.0274 133.217L75.0574 130.629C73.9166 129.86 72.7594 129.042 71.7791 128.075C71.4147 127.707 71.0533 127.315 70.8123 126.853C70.7052 126.637 70.6145 126.386 70.6829 126.145L70.6859 126.136L70.7008 126.091L70.7052 126.082L70.7142 126.064L70.7186 126.056L70.7231 126.047L70.7276 126.038L70.732 126.029L70.7365 126.02L70.7409 126.011L70.7454 126.002L70.7513 125.995L70.7632 125.98L70.7692 125.972L70.7811 125.957C70.7885 125.947 70.7989 125.937 70.8079 125.926L70.8198 125.914L70.8317 125.902L70.8718 125.867L70.9016 125.843L70.9313 125.822L70.9804 125.791L70.9983 125.78L71.0161 125.77C71.2601 125.639 71.5367 125.581 71.8059 125.536C73.4674 125.306 76.295 125.507 77.9951 125.508C80.0076 125.52 82.0721 125.477 84.0296 124.971C86.7977 124.283 89.2832 122.661 91.0354 120.411C91.7255 119.535 92.3324 118.575 92.7221 117.525C93.0835 116.56 93.2412 115.517 93.1862 114.488C93.1207 113.17 92.7206 111.888 92.2134 110.677C91.3477 108.621 90.1399 106.625 88.9634 104.732L83.7321 96.6521C78.9738 89.1838 74.8447 80.5478 76.8409 71.4923C77.9341 66.5273 80.6353 62.0829 83.3632 57.8571C86.1997 53.5287 90.8955 47.1908 93.0404 42.5813C94.867 38.7512 95.932 34.2666 97.7288 30.4216C98.9202 27.8364 100.495 25.4164 102.323 23.2358C104.816 20.2565 107.687 17.5613 110.669 15.0773C114.317 12.0653 118.279 9.25999 122.371 6.88903C125.325 5.18593 128.434 3.63752 131.658 2.516C133.604 1.84815 135.628 1.31714 137.685 1.16988C140.242 0.975032 142.81 1.49116 145.201 2.37618C146.457 2.8358 148.129 3.55868 149.394 3.80113C149.973 3.90525 150.57 3.90378 151.153 3.84577C151.809 3.79519 152.688 3.61967 153.338 3.58992C153.898 3.55422 154.465 3.5572 155.023 3.62116C156.329 3.76693 157.615 4.13284 158.85 4.57311C160.544 5.18445 162.189 5.97575 163.757 6.85779C171.515 11.2026 177.559 18.0075 182.394 25.3688C186.065 31.0344 189.359 37.1834 191.318 43.6641C191.93 45.7168 192.429 48.5116 192.845 50.6401C193.149 52.1112 193.541 53.5867 194.136 54.9685C195.045 57.1417 197.083 60.0511 198.337 62.0769C199.35 63.7131 200.318 65.4281 201.047 67.2115C201.847 69.1556 202.378 71.2291 202.482 73.3338C202.604 75.7627 202.188 78.1991 201.628 80.5552C200.568 85.0398 198.496 90.2071 197.409 94.6828C197.153 95.782 196.938 96.9184 196.892 98.0473C196.861 98.8818 196.919 99.737 197.202 100.527C197.475 101.299 197.965 101.982 198.533 102.566C199.579 103.64 200.952 104.535 202.021 105.583C202.818 106.35 203.504 107.254 203.913 108.288C204.428 109.591 204.566 111.015 204.614 112.404C204.734 116.74 203.801 121.653 203.987 125.989C204.083 127.613 204.3 129.346 205.301 130.684C206.088 131.726 207.263 132.385 208.435 132.908C209.345 133.331 210.727 133.78 211.494 134.44C211.726 134.642 211.918 134.901 212.006 135.2C212.26 136.082 211.771 137.012 211.256 137.705C209.738 139.66 207.411 140.812 205.073 141.482C202.629 142.173 200.065 142.44 197.532 142.508C194.114 142.588 190.638 142.289 187.273 141.679C183.867 141.026 180.398 140.127 177.458 138.223C176.327 137.483 175.299 136.576 174.425 135.547C173.379 134.323 172.528 132.924 171.789 131.498C170.537 129.056 169.589 126.424 168.976 123.749C168.477 121.534 168.196 119.245 168.279 116.97M143.968 27.8245C142.572 27.4378 141.099 27.3575 139.656 27.414C137.751 27.4988 135.85 27.8439 134.032 28.421C132.372 28.955 130.753 29.6912 129.342 30.7265C128.344 31.4583 127.459 32.3493 126.735 33.3518C125.481 35.0802 124.708 37.1194 124.233 39.1899C123.501 42.3983 123.412 45.7569 123.415 49.0367L123.659 61.4403C123.666 65.8267 123.522 70.3024 122.54 74.5936C121.943 77.2025 120.93 79.7267 119.759 82.1274C118.234 85.3521 116.03 88.8 115.032 92.2345C114.54 93.9093 114.416 95.6897 114.708 97.4122C115.02 99.3324 115.764 101.165 116.687 102.868C117.947 105.182 119.561 107.327 121.243 109.35C125.286 114.153 129.881 118.596 135.097 122.111C138.307 124.235 141.84 126.067 145.676 126.676C148.264 127.091 150.94 126.914 153.468 126.24C156.672 125.392 159.659 123.818 162.39 121.962C166.595 119.071 170.29 115.342 172.876 110.924C174.224 108.65 175.164 106.13 175.929 103.607C176.705 101.086 177.478 97.7364 178.627 95.3938C179.066 94.4968 179.66 93.6743 180.4 93.002C181.578 91.9206 183.163 90.9999 184.328 89.9037C185.482 88.855 186.4 87.5684 187.193 86.2327C188.396 84.1919 189.37 81.9831 190.145 79.7445C190.669 78.1887 191.137 76.5734 191.335 74.9402C191.484 73.6952 191.399 72.4205 190.728 71.3287C190.086 70.2845 189.101 69.23 187.824 69.0782C186.889 68.9711 185.915 69.459 185.052 69.7595C184.731 69.8725 184.399 69.9855 184.059 70.0183C183.886 70.0331 183.706 70.0257 183.543 69.9603L183.507 69.9454L183.471 69.9276L183.453 69.9186L183.436 69.9082L183.387 69.877L183.337 69.8413L183.278 69.7877L183.233 69.7431L183.218 69.7267L183.192 69.694L183.178 69.6777L183.152 69.642C182.98 69.404 182.887 69.1199 182.817 68.8373C182.604 67.9032 182.604 66.9081 182.6 65.9531C182.604 63.6729 182.787 60.4824 182.69 58.226C182.618 56.1689 182.403 54.0731 182.027 52.0502C181.109 47.0792 179.223 42.2183 176.146 38.177C173.955 35.3003 171.161 32.8803 168.033 31.0716C165.103 29.4071 161.782 28.1488 158.368 28.2514C156.885 28.305 155.423 28.6857 154.017 29.1394C152.79 29.5217 151.285 30.13 149.991 30.1776C148.612 30.2446 147.342 29.361 146.173 28.7437C145.474 28.3704 144.736 28.0387 143.968 27.8245Z" stroke="black" stroke-miterlimit="10" stroke-linecap="round" stroke-linejoin="round"/>
</svg>
